# xmcd
# Copyright (C) 1995-1998 Ti Kan
#
# Track frame offsets:
#       150
#       19877
#       38934
#       56872
#       71657
#       88914
#       108349
#       125245
#       142089
#       160606
#       181371
#       198135
#       218676
#       233553
#       251678
#       268893
#       289769
#       311494
#       335522
#
# Disc length: 4691 seconds
#
# Revision: 0
# Processed by: cddbd v1.5.1PL2 Copyright (c) Steve Scherf et al.
# Submitted via: CD-Transfer v1.0
#
DISCID=24125113
DTITLE=Various  - 
DYEAR=05
DGENRE=
TTITLE0=Santana   Maria Maria
TTITLE1=Mario   Let Me Love You
TTITLE2=Marc Terenzu   Love To Be Loved By You
TTITLE3=Simply Red   Sunrise
TTITLE4=Britney Spears   Everytime
TTITLE5=Sarah Connor   Living To Love You
TTITLE6=Usher and Alicia Keys   My Boo
TTITLE7=Jennifer Lopez   I'm Glad
TTITLE8=Söhne Mannheims   Und wenn ein Lied
TTITLE9=Outlandish   Aicha
TTITLE10=Destiny's Child   Girl
TTITLE11=Whitney Houston and Carey   When You Believe
TTITLE12=Westlife   Mandy
TTITLE13=Plüsch   Schlaraffeland
TTITLE14=Aextra   Us Tärne
TTITLE15=Mash   Märliland
TTITLE16=George Michael   Waiting For That Day
TTITLE17=Billy Joel   An Innocent Man
TTITLE18=Elvis Presley   Always On My Mind
EXTD=
EXTT0=
EXTT1=
EXTT2=
EXTT3=
EXTT4=
EXTT5=
EXTT6=
EXTT7=
EXTT8=
EXTT9=
EXTT10=
EXTT11=
EXTT12=
EXTT13=
EXTT14=
EXTT15=
EXTT16=
EXTT17=
EXTT18=
PLAYORDER=
